<?xml version="1.0" encoding="utf-8"?>
<!-- Generator: Adobe Illustrator 26.3.1, SVG Export Plug-In . SVG Version: 6.00 Build 0)  -->
<svg version="1.1" id="圖層_1" xmlns="http://www.w3.org/2000/svg" xmlns:xlink="http://www.w3.org/1999/xlink" x="0px" y="0px"
	 viewBox="0 0 373 42.7" style="enable-background:new 0 0 373 42.7;" xml:space="preserve">
<style type="text/css">
	.st0{fill:#0B4873;}
</style>
<g>
	<path class="st0" d="M56.3,5.6l-3.9-0.8c-0.6,3-1.5,6-2.7,8.5V11h-7.3C43,9.3,43.5,7.4,44,5.6l-4.1-0.8c-1,5.1-3,10.1-5.5,13.2
		c1,0.5,2.8,1.7,3.5,2.3c1.1-1.5,2.1-3.4,3-5.5h0.3v20h3.9v-20H49c-0.6,1.1-1.3,2.2-2,3.1c0.9,0.5,2.6,1.7,3.3,2.3
		c1.1-1.5,2.1-3.3,3-5.4h3.6v15.4c0,0.4-0.2,0.6-0.7,0.6s-2.4,0-4.1-0.1c0.5,1.2,1.1,2.9,1.2,4c2.6,0,4.5-0.1,5.8-0.7
		c1.3-0.6,1.7-1.7,1.7-3.8V14.8h4.1V11H54.7C55.3,9.3,55.9,7.4,56.3,5.6z"/>
	<path class="st0" d="M350.5,17h-0.8c0-1.7,0.1-3.5,0.1-5.3h-2.2c0,1.8,0,3.6,0,5.3h-1.1v2.5h1c-0.2,5.5-0.9,10-3,13.1
		c0.5,0.4,1.5,1.2,1.8,1.6c2.2-3.7,3-8.7,3.3-14.8h0.9c-0.1,8.3-0.2,11.1-0.6,11.7c-0.2,0.3-0.3,0.4-0.6,0.4s-0.8,0-1.4-0.1
		c0.3,0.6,0.6,1.7,0.6,2.4c0.8,0,1.5,0,2-0.1c0.6-0.1,1-0.3,1.4-1c0.6-1,0.7-4.4,0.8-14.6c0-0.3,0-1.1,0-1.1h-1.5
		C351.2,17,350.5,17,350.5,17z"/>
	<path class="st0" d="M160.5,27.4v-3h-12.7v-1.9h-1.9c1.4-1.1,2.2-2.5,2.5-3.8c1.2,0.9,2.5,2.1,3.1,3l1.8-1.7
		c0.1,1.2,0.3,1.8,0.7,2.2c0.5,0.5,1.4,0.8,2.2,0.8c0.4,0,1.1,0,1.6,0c0.6,0,1.3-0.1,1.7-0.3c0.5-0.3,0.9-0.7,1.1-1.2
		c0.2-0.5,0.4-1.9,0.4-3.1c-0.8-0.3-1.9-0.8-2.5-1.3c0,1.1-0.1,1.9-0.1,2.3c-0.1,0.4-0.2,0.5-0.3,0.6s-0.2,0.1-0.4,0.1s-0.4,0-0.5,0
		s-0.3,0-0.3-0.2c-0.1-0.1-0.1-0.4-0.1-1v-5.7H155h-1.9h-4.7h-2.2h-1.3v3.2c0,1.2-0.2,2.3-1.4,3.3l-0.1-1.6c-1.3,0.2-2.7,0.4-4,0.6
		V16h4v-2.7h-11.6V16h4.1v3.2c-1.8,0.2-3.5,0.5-4.8,0.6l0.4,3c2.6-0.4,5.9-0.9,9.2-1.4c0.8,0.6,1.9,1.7,2.4,2.4
		c0.2-0.1,0.4-0.2,0.6-0.3v0.8H131v3h9.9c-2.7,1.7-6.7,3-10.5,3.6c0.8,0.8,1.9,2.2,2.4,3.1c3.9-0.9,7.9-2.7,10.9-5.1v5.8h3.7V29
		c2.9,2.4,7,4.1,10.9,5c0.5-1,1.6-2.5,2.4-3.3c-3.9-0.6-8-1.8-10.8-3.4L160.5,27.4L160.5,27.4z M153.3,15.7v3.2
		c-0.8-0.8-2.1-1.8-3.1-2.5l-1.6,1.4c0.1-0.5,0.1-0.9,0.1-1.4v-0.8h4.6V15.7z"/>
	<path class="st0" d="M22.9,10.9c3.4-0.7,7-1.7,9.9-3l-3.1-2.8c-2,1.1-5.1,2.1-8.2,2.8l-2.3-0.6v11.2c0,4.4-0.4,9.9-4.1,13.8
		c0.9,0.5,2.3,1.8,2.8,2.6c4.2-4.4,4.9-11.2,5-16h3.3v15.7h3.7V19h3v-3.6h-10V10.9z"/>
	<polygon class="st0" points="302.7,21.7 311.2,21.7 311.2,18.8 302.7,18.8 302.7,11.9 299.6,11.9 299.6,30.1 290.9,30.1 290.9,33 
		312.9,33 312.9,30.1 302.7,30.1 	"/>
	<path class="st0" d="M106.6,27.6c1.1-3.1,1.9-6.9,2.3-11.5l-2.2-0.5l-0.6,0.1h-0.7h-0.9c1.3-2.9,2.6-6,3.6-8.5l-2.6-0.7l-0.6,0.1
		h-0.5h-5.5V10h4.2c-1.2,2.8-2.8,6.3-4.2,9.1l3.5,0.9c0.1-0.3,0.3-0.6,0.4-0.9h2.2c-0.3,2-0.6,3.8-1.1,5.4c-0.6-1-1.1-2.2-1.6-3.6
		l-3,1.1c0.8,2.6,1.8,4.6,3,6.2c-1,1.8-2.2,3.2-3.8,4.3c0.8,0.5,2.3,1.9,2.9,2.6c1.4-1,2.6-2.4,3.6-4.1c3.4,2.6,7.8,3.2,13.2,3.2
		h9.4c0.2-1.1,0.9-2.9,1.5-3.7c-2.3,0.1-8.9,0.1-10.8,0.1C113.7,30.4,109.7,29.9,106.6,27.6z"/>
	<path class="st0" d="M12.7,24.3V24H18v-3.2h-5.3v-2.4h5.6v-3.2h-3.2c0.5-1,1-2.3,1.5-3.6l-1.9-0.4H18V8h-5.3V5.1H8.9V8H3.6v3.1h3.6
		l-2,0.5c0.5,1.1,0.8,2.5,0.9,3.5h-3v3.2h5.8v2.4H3.3V24h4.9c-1.5,2.4-3.7,4.8-5.8,6.2c0.8,0.6,1.9,1.9,2.5,2.7
		c1.4-1.1,2.8-2.7,4-4.5v6.4h3.7V28c0.9,0.9,1.8,1.8,2.3,2.5l2.2-2.8C16.5,27.2,13.9,25.1,12.7,24.3z M8.2,11.1H13
		c-0.3,1.1-0.8,2.5-1.2,3.6l2.1,0.4H7.6l1.7-0.4C9.2,13.7,8.8,12.3,8.2,11.1z"/>
	<polygon class="st0" points="222.4,16.8 237.2,16.8 237.2,20.1 240.2,20.1 240.2,14.1 231.4,14.1 231.4,11.6 228.3,11.6 
		228.3,14.1 219.6,14.1 219.6,20.1 222.4,20.1 	"/>
	<path class="st0" d="M136.4,10.1h0.5c0.6,1,1.2,2.1,1.4,2.9l3.1-0.9c-0.2-0.6-0.6-1.3-1.1-2h4.5c-0.4,0.4-0.8,0.7-1.2,1.1
		c0.9,0.4,2.6,1.2,3.4,1.8c0.9-0.8,1.7-1.8,2.6-2.9h1.7c0.7,1,1.4,2.1,1.7,2.9l3.3-0.9c-0.3-0.6-0.7-1.3-1.3-2h5.7v-3h-9.3
		c0.3-0.5,0.5-1.1,0.8-1.6l-3.6-0.9c-0.7,1.8-1.8,3.5-3.1,4.9V7.1h-7.2c0.3-0.5,0.6-1,0.8-1.6l-3.6-1c-1,2.4-2.8,4.8-4.7,6.3
		c0.9,0.5,2.4,1.5,3.1,2.1C134.7,12.2,135.6,11.2,136.4,10.1z"/>
	<path class="st0" d="M116,11.1h-8.1V14h8.1v1.3h-6v2.9h6v1.4h-6.2v2.8h6.2v1.5h-7.6v3h7.6v2.6h3.7v-2.6h8.4v-3h-8.4v-1.5h6.9v-2.8
		h-6.9v-1.4h6.7V14h2.4v-2.9h-2.4V6.9h-6.7V5.1H116v1.8h-5.9v2.9h5.9V11.1z M122.6,15.4h-2.9V14h2.9V15.4z M122.6,9.8v1.3h-2.9V9.8
		H122.6z"/>
	<path class="st0" d="M361.2,23.6v-2.4h-1.8c0.4-1,0.8-2.5,1.2-3.9l-1.8-0.4h2v-2.4h-2.4v-3h-2.7v3h-2.6V17h2.5h2.5
		c-0.2,1.2-0.5,2.8-0.8,3.9l1.6,0.4h-4l1.6-0.5c0-1-0.3-2.6-0.8-3.8l-2,0.6c0.4,1.2,0.6,2.7,0.7,3.7h-1.3v2.4h2.7v2.5h-2.5v2.4h2.5
		v5.7h2.7v-5.7h2.4v-2.4h-2.4v-2.5L361.2,23.6L361.2,23.6z"/>
	<path class="st0" d="M83.9,4.7h-4.1v4.2H67.2v3.7h12.5V16h-9.5v15h3.9V19.7h5.6v15.2h4V19.7h6.2v7c0,0.4-0.2,0.5-0.7,0.5
		s-2.4,0-4-0.1c0.5,1,1.1,2.7,1.3,3.8c2.5,0,4.4-0.1,5.7-0.6c1.3-0.6,1.7-1.7,1.7-3.6V16h-2.6h-1.4h-6.1v-3.4h12.8V8.9H83.9V4.7z"/>
	<path class="st0" d="M264.8,28.8v-2.4h-9.6v-1.7h-2.3c1-0.3,1.9-0.5,2.7-0.9c2.4,0.7,4.5,1.4,6,2l1.7-2c-1.3-0.5-3.1-1.1-5.1-1.6
		c0.8-0.7,1.4-1.6,1.9-2.6h4.2v-2.3H253c0.3-0.4,0.6-0.8,0.8-1.1l-2.2-0.6h9.7v1.3h2.8v-3.7h-8.9v-1.6h-2.9v1.6h-8.8v3.7h2.7v-1.3
		h4.9c-0.4,0.6-0.8,1.2-1.3,1.8h-6.5v2.3h4.7c-0.7,0.8-1.3,1.6-1.9,2.2l2.7,0.7c0.1-0.1,0.2-0.3,0.3-0.4c0.7,0.2,1.5,0.3,2.2,0.5
		c-1.9,0.4-4.3,0.7-7.6,0.8c0.4,0.6,0.8,1.6,0.9,2.2c3-0.2,5.4-0.5,7.4-0.9v1.5h-9.4v2.4h7.3c-2.1,1.3-5,2.3-7.9,2.8
		c0.6,0.6,1.4,1.7,1.8,2.3c3-0.7,6-2.1,8.2-3.9V34h2.9v-4.3c2.3,1.9,5.4,3.3,8.4,4c0.4-0.7,1.2-1.8,1.8-2.4c-2.9-0.5-5.8-1.5-8-2.7
		h7.7V28.8z M250.8,20.5c0.2-0.3,0.4-0.5,0.6-0.8h5.7c-0.4,0.7-1,1.3-1.8,1.8C253.7,21.1,252.2,20.7,250.8,20.5z"/>
	<path class="st0" d="M231.4,30.9v-3.6h6.6v-2.7h-6.6v-3h5.1v-2.7h-13.3v2.7h5.1v8.5c-1.4-0.7-2.5-1.8-3.3-3.8c0.2-1,0.4-2,0.6-3.1
		l-3-0.3c-0.4,4.1-1.6,7.5-4.2,9.4c0.7,0.4,1.9,1.5,2.4,2c1.4-1.2,2.4-2.7,3.2-4.6c2.2,3.4,5.5,4.2,9.9,4.2h6c0.1-0.9,0.6-2.3,1-2.9
		c-1.6,0-5.6,0-6.9,0C233.2,31,232.2,31,231.4,30.9z"/>
	<path class="st0" d="M266.2,31.3c0.6,0.2,1.6,0.7,2.1,1c0.7-1.5,1.2-3.9,1.4-6.2l-2.3-0.4C267.2,27.8,266.9,29.9,266.2,31.3z"/>
	<path class="st0" d="M213,19.2c-0.8,0-3.5,0-4.2,0c-1.4,0-1.7-0.1-1.7-1v-1c2.9-0.6,6.1-1.4,8.6-2.4l-2.1-2.1
		c-1.6,0.8-4,1.5-6.4,2.1v-3.2h-2.9v6.5c0,2.8,0.9,3.6,4.2,3.6c0.7,0,4,0,4.7,0c2.7,0,3.6-0.9,3.9-4.3c-0.8-0.2-2-0.6-2.6-1
		C214.4,18.8,214.2,19.2,213,19.2z"/>
	<path class="st0" d="M285.9,27.9c1-0.8,2.2-1.7,3.3-2.6l-2.3-1.7c-0.6,0.7-1.4,1.6-2.2,2.4c-0.5-1-0.8-1.9-1.1-2.9V23h4.6v-9h-5
		c0.4-0.6,0.7-1.3,1.1-1.9l-3.3-0.5c-0.2,0.7-0.5,1.6-0.8,2.4h-3.8v9h4.6v2.1l-1.4-0.6l-0.4,0.1h-0.5H276l0.3-0.1
		c-0.3-1.4-1.2-3.5-2.2-5.1l-2,0.8c0.3,0.5,0.5,1,0.7,1.6c-0.7,0-1.4,0.1-2.1,0.1c1.5-1.9,3.2-4.3,4.5-6.4l-2.3-1.1
		c-0.6,1.2-1.4,2.5-2.2,3.9c-0.2-0.3-0.5-0.6-0.7-0.9c0.9-1.3,1.8-3.2,2.7-4.9l-2.5-0.9c-0.4,1.2-1.1,2.8-1.8,4.2
		c-0.2-0.2-0.4-0.3-0.5-0.5l-1.4,1.9c1,1,2.1,2.3,2.8,3.4c-0.4,0.5-0.7,1-1.1,1.4c-0.6,0-1.2,0.1-1.8,0.1l0.3,2.5
		c1-0.1,2.2-0.2,3.4-0.3v9.8h2.5v-10c0.4,0,0.8-0.1,1.2-0.1c0.2,0.5,0.3,1,0.4,1.4l1.7-0.8V27h2.3c-0.8,1.9-2.1,3.4-3.7,4.3
		c0.5,0.4,1.4,1.4,1.8,1.9c2.2-1.4,4-3.9,4.9-7.5v5.7c0,0.2-0.1,0.3-0.4,0.3s-1.2,0-2,0c0.3,0.7,0.6,1.8,0.7,2.5
		c1.5,0,2.5,0,3.3-0.4c0.8-0.4,0.9-1.1,0.9-2.3v-2.8c1,1.8,2.3,3.5,4.2,4.5c0.4-0.7,1.2-1.8,1.7-2.3C288,30.2,286.9,29.1,285.9,27.9
		z M279,16.2h6.4v1.3H279V16.2z M279,19.5h6.4v1.2H279V19.5z"/>
	<path class="st0" d="M274.8,25.6l-2,0.6c0.5,1.3,1,3.1,1.1,4.2l2.1-0.7C275.8,28.6,275.3,27,274.8,25.6z"/>
	<path class="st0" d="M327.3,11.6h-3v3.2h-8.1v14.4h2.9V28h5.2v6.2h3V28h5.4v1.1h3V14.8h-8.4V11.6z M324.3,17.6V20h-5.2v-2.4H324.3z
		 M319.1,25.2v-2.5h5.2v2.5H319.1z M327.3,25.2v-2.5h5.4v2.5H327.3z M332.7,17.6V20h-5.4v-2.4H332.7z"/>
	<path class="st0" d="M346.4,27.5l-0.2-2.3c-0.8,0.1-1.5,0.2-2.3,0.4v-2h2.4v-2.4h-1.5c0.4-1,0.7-2.5,1.2-3.9l-2.1-0.3h2.2v-2.4
		h-2.2v-3h-2.6v3H339V17h2.4h2.3c-0.1,1.2-0.5,2.8-0.8,3.9l1.5,0.4h-3.9l1.7-0.5c0-1-0.3-2.6-0.7-3.8l-1.9,0.6
		c0.3,1.2,0.6,2.7,0.6,3.7h-1.3v2.4h2.6V26c-1,0.2-2,0.3-2.8,0.4l0.5,2.5c0.6-0.1,1.4-0.2,2.1-0.4c-0.3,1.4-0.9,2.9-2.4,3.9
		c0.6,0.4,1.4,1.3,1.8,1.9c2.2-1.6,3.1-4,3.4-6.2C344.7,27.8,345.5,27.7,346.4,27.5z"/>
	<path class="st0" d="M173.7,23.5l-2.7,0.8c0.7,1.8,1.3,4.1,1.4,5.6l2.8-0.9C175.1,27.5,174.4,25.3,173.7,23.5z"/>
	<path class="st0" d="M204.2,34.2h2.7v-1.1h6.1V34h2.9V23.1h-11.7V34.2z M207,30.8v-1.6h6.1v1.6H207z M213.1,25.5V27H207v-1.5H213.1
		z"/>
	<path class="st0" d="M188.6,26.6c1.4-1,2.9-2.3,4.4-3.5l-3.1-2.3c-0.7,1-1.8,2.2-2.9,3.2c-0.6-1.3-1.1-2.6-1.5-3.8V20h6.1V8H185
		c0.5-0.8,1-1.7,1.4-2.6L182,4.7c-0.2,1-0.7,2.1-1.1,3.2h-5v12h6.2v2.8l-1.9-0.8l-0.6,0.1h-0.7h-3.6l0.4-0.2
		c-0.4-1.8-1.6-4.6-2.9-6.8l-2.7,1.1c0.3,0.6,0.7,1.3,1,2.1c-0.9,0.1-1.9,0.1-2.8,0.2c2-2.6,4.2-5.8,6-8.5l-3.1-1.4
		c-0.8,1.6-1.8,3.4-2.9,5.2c-0.3-0.4-0.6-0.8-1-1.3c1.1-1.8,2.4-4.3,3.6-6.6l-3.3-1.2c-0.5,1.6-1.5,3.8-2.3,5.6
		c-0.2-0.2-0.5-0.5-0.7-0.7l-1.9,2.6c1.3,1.3,2.8,3.1,3.7,4.5c-0.5,0.7-0.9,1.3-1.4,1.9c-0.8,0-1.6,0.1-2.4,0.1l0.4,3.3
		c1.3-0.1,2.9-0.2,4.5-0.3v13h3.3v-13c0.5,0,1-0.1,1.6-0.1c0.2,0.7,0.4,1.3,0.5,1.9l2.3-1v3h3.1c-1.1,2.6-2.8,4.5-4.9,5.7
		c0.7,0.5,1.9,1.8,2.4,2.6c3-1.8,5.3-5.2,6.5-10.1v7.7c0,0.3-0.1,0.4-0.5,0.4s-1.5,0-2.7,0c0.4,1,0.8,2.3,0.9,3.3
		c2,0,3.3-0.1,4.4-0.6c1-0.5,1.2-1.4,1.2-3.1v-3.7c1.3,2.4,3.1,4.6,5.6,6.1c0.5-1,1.6-2.4,2.3-3.1C191.4,29.6,189.8,28.2,188.6,26.6
		z M179.4,10.9h8.6v1.7h-8.6V10.9z M179.4,15.4h8.6v1.7h-8.6V15.4z"/>
	<path class="st0" d="M203.1,21.8c-0.8,0.2-1.7,0.4-2.5,0.6v-3.6h2.4v-2.7h-2.4v-4.5h-2.8v4.5h-3v2.7h3v4.3
		c-1.3,0.3-2.4,0.6-3.4,0.8l0.7,2.8c0.8-0.2,1.7-0.4,2.7-0.7v5.1c0,0.3-0.1,0.4-0.5,0.5c-0.3,0-1.3,0-2.2,0c0.3,0.7,0.7,1.9,0.8,2.6
		c1.7,0,2.9-0.1,3.7-0.5c0.8-0.4,1.1-1.2,1.1-2.5v-5.9c0.9-0.3,1.9-0.5,2.8-0.8L203.1,21.8z"/>
	<path class="st0" d="M162.3,31.1c0.7,0.3,2.1,0.9,2.8,1.3c0.9-2,1.6-5.2,1.9-8.3l-3.1-0.5C163.7,26.3,163.2,29.2,162.3,31.1z"/>
</g>
<rect x="3.2" y="38.4" class="st0" width="358" height="0.5"/>
</svg>
