<?xml version="1.0" encoding="utf-8"?>
<!-- Generator: Adobe Illustrator 26.3.1, SVG Export Plug-In . SVG Version: 6.00 Build 0)  -->
<svg version="1.1" id="圖層_1" xmlns="http://www.w3.org/2000/svg" xmlns:xlink="http://www.w3.org/1999/xlink" x="0px" y="0px"
	 viewBox="0 0 238.8 74.2" style="enable-background:new 0 0 238.8 74.2;" xml:space="preserve">
<style type="text/css">
	.st0{fill:#0B4873;}
</style>
<g>
	<path class="st0" d="M16.4,29.8c-0.9,2.6-2.4,5.5-3.6,7.4c-0.6-0.5-2-1.5-2.8-1.9c1.2-1.7,2.4-4.1,3.2-6.4L16.4,29.8z M21.5,27.7
		v12h-4.1v-12h-6.7v-3.6h6.7v-2.8h-6.9v-3.5h3.5c-0.2-1.1-0.6-2.6-1-3.7l3-0.7H11V9.9h6.2c-0.3-1-0.7-2-1.1-2.8l4.3-1
		c0.5,1.2,1.2,2.7,1.6,3.9h5.1v3.5h-4.5l2.9,0.6c-0.5,1.4-1.1,2.8-1.6,3.9h3.7v3.5h-6.2v2.8h5.6v3.6H21.5z M16.3,13.4
		c0.5,1.2,1,2.7,1.2,3.7l-2.6,0.7h5.2c0.5-1.3,1.2-3.1,1.5-4.5H16.3z M43.7,22.1h-3.3v17.7h-4.2V22.1h-3.3v0.4
		c0,5.3-0.5,12.7-3.5,17.3c-0.7-0.8-2.4-2.1-3.3-2.6c0.7-1,1.2-2.2,1.6-3.5L25,35.4c-0.6-1.4-1.8-3.7-2.8-5.4l2.8-1.5
		c1,1.4,2.1,3.3,2.7,4.7c1-3.5,1.1-7.3,1.1-10.7V9.7c3.9-0.7,8.3-1.8,10.9-3.1L43,9.8c-3,1.2-6.7,2.1-10.2,2.7v5.7h10.9V22.1z"/>
	<path class="st0" d="M80.7,17.6H76v17.2c0,2.3-0.5,3.6-1.9,4.2c-1.4,0.7-3.7,0.8-6.5,0.8c-0.1-1.3-0.8-3.2-1.4-4.5
		c1.9,0.1,4,0.1,4.6,0.1c0.6,0,0.8-0.2,0.8-0.7V17.6h-4c-1,2.3-2.2,4.4-3.4,6c-0.8-0.7-2.6-2-3.6-2.6c0.8-1,1.6-2.1,2.3-3.4h-4.4
		v22.4h-4.3V17.6h-0.4c-1,2.3-2.2,4.5-3.4,6.2c-0.9-0.8-2.8-2-3.9-2.6c2.8-3.4,5-9.1,6.2-14.7l4.5,0.9c-0.5,2.1-1,4.1-1.7,6h8.2v2.6
		C65,13,66,9.7,66.7,6.4L71,7.2c-0.5,2.1-1,4.1-1.7,6.1h11.4V17.6z"/>
	<path class="st0" d="M102.9,15.4v4h11.6v12.1c0,2.1-0.4,3.3-1.9,4c-1.5,0.7-3.6,0.7-6.3,0.7c-0.2-1.3-0.8-3.1-1.4-4.2
		c1.8,0.1,3.9,0.1,4.5,0.1c0.6,0,0.8-0.1,0.8-0.6v-7.9h-7.1v16.2h-4.5V23.6h-6.7v12.6h-4.3V19.4h11v-4h-14v-4.2h14.4
		c-0.5-1.3-1.2-2.8-1.8-4l4.2-1.3c0.9,1.7,2.1,3.8,2.7,5.3h13.3v4.2H102.9z"/>
	<path class="st0" d="M132.2,19c-0.5,5.3-1.4,9.6-2.8,13c3.3,2.8,7.8,3.5,13,3.5c2.1,0,9.5,0,12-0.1c-0.6,0.9-1.3,2.8-1.5,3.9h-10.6
		c-6,0-10.9-0.8-14.7-3.8c-1.1,1.9-2.5,3.4-4,4.5c-0.6-0.8-2.2-2.3-3.1-2.8c1.8-1.2,3.2-2.8,4.3-4.8c-1.3-1.9-2.3-4.1-3.2-7l3.1-1.1
		c0.5,1.6,1.1,3,1.8,4.2c0.6-1.8,1.1-3.9,1.4-6.3h-3.1c-0.8,0.4-1.9,1.1-1.9,1.6c-0.3-0.8-1.1-2.4-1.7-3.3c0.7-0.2,1.7-1.2,2.5-2.4
		c0.5-0.8,1.9-3.2,3.2-6.1h-5.3V8.3h6.7l1.4-0.6l2.6,1.8c-1.4,3.2-3,6.3-4.5,9h1.3l0.7-0.1L132.2,19z M139.7,12.2h-6V9h6V6.4h4V9h8
		v5h2v3.2h-2v5h-8v1.8h8.4v3h-8.4v1.8h9.5v3.3h-9.5v2.4h-4v-2.4h-7.9v-3.3h7.9v-1.8h-6.4v-3h6.4v-1.8h-6.2v-3.2h6.2v-1.8h-8V14h8
		V12.2z M143.7,12.2V14h4.2v-1.7H143.7z M147.9,17.1h-4.2v1.8h4.2V17.1z"/>
	<path class="st0" d="M191.1,11.5h-6.2c0.7,0.7,1.4,1.5,1.9,2.1l-3,2.1h2.4v6.8c0,0.6,0,0.9,0.1,1.1c0.1,0.1,0.2,0.2,0.4,0.2h0.5
		c0.2,0,0.3,0,0.4-0.1c0.1-0.1,0.2-0.3,0.3-0.7c0.1-0.4,0.1-1.4,0.1-2.5c0.6,0.6,1.8,1.2,2.8,1.5c-0.1,1.4-0.3,2.8-0.5,3.5
		c-0.3,0.6-0.7,1-1.2,1.3c-0.5,0.3-1.3,0.4-1.9,0.4h-1.8c-0.9,0-1.8-0.3-2.4-0.9c-0.5-0.6-0.8-1.2-0.9-3.1l-1.4,2.7
		c-0.6-0.4-1.5-0.8-2.5-1.4c-0.5,0.7-1.2,1.3-2.1,1.9h0.5v2.1h14.2v3.3h-9.5c3,1.2,7.1,3.1,9.2,4.6l-3.1,2.9c-1.9-1.5-6-3.6-9.1-5
		l2.9-2.6h-4.6v8.1h-4.2v-8.1h-14.2v-3.3h14.2v-2.1h0.5c-0.5-0.4-1-0.9-1.4-1.1v0.2c-4.4,0.6-9,1.2-12.5,1.7l-0.5-3.4
		c1.4-0.1,3.1-0.3,4.8-0.5v-4.4h-4.5v-3h9c-0.7-1-1.9-2.3-2.8-3.3l1.4-1.1h-2.4c-1.2,1.5-2.3,2.7-3.6,3.7c-0.6-0.8-2-2.2-2.9-3
		c2.2-1.5,4.2-3.9,5.4-6.3l3.8,1.2c-0.2,0.4-0.4,0.8-0.6,1.1h7.9v3.2h-5.3c0.9,0.9,1.7,1.8,2.2,2.4l-2.4,1.9h2.8v3h-4.2v4
		c1.4-0.2,2.8-0.4,4.1-0.5l0.1,2.7c1.7-0.6,2.8-1.4,3.5-2.1c-1-0.5-2.1-1-3-1.4l1.5-2.4c0.8,0.3,1.7,0.7,2.6,1.1c0-0.2,0-0.4,0-0.6
		v-1.1h-3.4v-2.8h10.9c-0.6-0.9-1.8-2.3-2.8-3.3l1.3-0.9h-2.8c-1,1.5-2.1,2.7-3.2,3.7c-0.7-0.7-2.3-1.9-3.2-2.6
		c2.1-1.6,3.9-4.1,4.9-6.7l3.9,1c-0.2,0.4-0.4,0.8-0.5,1.3h10L191.1,11.5z M170.9,33.4c-2.2,2.8-6,5.1-9.9,6.3
		c-0.6-1-1.9-2.7-2.8-3.5c3.6-0.7,7.3-2.2,9.3-4L170.9,33.4z M179.7,19.7c0,0.7-0.1,1.3-0.2,2c1,0.5,1.9,1,2.7,1.4v-0.4v-4.1h-2.5
		V19.7z"/>
	<path class="st0" d="M204.7,28.7c-0.1-0.5-0.1-1-0.3-1.6c-6.5,0.9-7.7,1.3-8.5,1.7c-0.2-0.8-0.9-2.8-1.4-3.9c1-0.3,1.8-1,2.9-2.4
		c0.4-0.5,1.2-1.5,2.2-2.8c-2.6,0.3-3.4,0.5-4,0.8c-0.2-0.8-0.9-2.7-1.3-3.7c0.7-0.2,1.3-0.9,2-1.9c0.7-1,2.8-4.9,4-8.7l3.9,1.6
		c-1.2,2.9-2.9,6-4.6,8.5l2.4-0.2c0.9-1.5,1.8-3.2,2.6-4.8l3.6,2.3c-1.4,2.5-3,5-4.8,7.4l2.7-0.8c0.8,2.4,1.7,5.6,1.9,7.5
		L204.7,28.7z M199.3,30.4c-0.3,3.3-0.9,6.8-1.6,9.1c-0.7-0.4-2.3-0.9-3.2-1.1c0.9-2.2,1.3-5.5,1.5-8.5L199.3,30.4z M202.8,29.9
		c0.4,2.4,0.7,5.5,0.8,7.6l-3.2,0.5c0-2.1-0.3-5.2-0.6-7.6L202.8,29.9z M203.7,23.9c-0.2-0.9-0.4-1.7-0.6-2.5
		c-0.8,1-1.6,1.9-2.4,2.8L203.7,23.9z M206.2,28.9c0.6,1.6,1.2,3.6,1.5,5l-2.9,1c-0.2-1.3-0.8-3.5-1.4-5L206.2,28.9z M216.3,26.2
		c-1.2,5.6-3.9,9.7-7.6,12c-0.5-0.9-1.6-2.3-2.4-3c2.2-1.2,4.1-3.6,5.3-6.3h-3.2v-3.5h4.8l0.6-0.1L216.3,26.2z M228,26.4
		c-1.7,1.3-3.3,2.7-4.8,3.8c1.4,2.1,3.2,3.9,5.3,5c-0.9,0.8-2.2,2.3-2.8,3.4c-2.1-1.4-3.8-3.5-5.2-6v3.1c0,1.9-0.3,3-1.6,3.6
		c-1.2,0.6-2.9,0.7-5.2,0.7c-0.1-1.2-0.6-2.8-1.2-3.9c1.3,0.1,2.8,0.1,3.2,0c0.5,0,0.6-0.1,0.6-0.5V23.2h-6.9V10.1h5.1
		c0.5-1.3,0.9-2.7,1.2-3.8l4.9,0.9c-0.5,1-1.1,2-1.6,3h7.7v13.1h-6.3v1.2c0.3,1,0.7,2,1.1,2.9c1.2-1.1,2.4-2.4,3.2-3.5L228,26.4z
		 M213.5,15.1h9.1v-1.8h-9.1V15.1z M213.5,20h9.1v-1.9h-9.1V20z"/>
</g>
<g>
	<path class="st0" d="M20,59.4l-2.7,0.8v5.7c0,1.4-0.3,2.1-1.1,2.5c-0.8,0.5-1.9,0.5-3.6,0.5c-0.1-0.7-0.5-1.9-0.8-2.6
		c0.9,0,1.9,0,2.2,0c0.3,0,0.5-0.1,0.5-0.5v-5c-1,0.3-1.8,0.5-2.7,0.7l-0.7-2.8c1-0.2,2.2-0.5,3.4-0.8v-4.2h-3v-2.7h3v-4.5h2.9v4.5
		h2.4v2.7h-2.4v3.5c0.8-0.2,1.6-0.4,2.4-0.6L20,59.4z M24.7,56.6c-3.1,0-4.1-1-4.1-3.8v-6.2h2.8v2.6h9.3v2.4h-9.3v1.2
		c0,0.9,0.2,1.2,1.3,1.2h5.4c1,0,2.4,0,3.1-0.2c0.1,0.7,0.2,1.8,0.3,2.4c-0.6,0.2-2,0.2-3.2,0.2H24.7z M20.8,58.1h11.7V69h-2.8V68
		h-6.1v1h-2.7V58.1z M23.5,60.5v1.5h6.1v-1.5H23.5z M29.6,65.7v-1.6h-6.1v1.6H29.6z"/>
	<path class="st0" d="M47.9,65.7c0.9,0.1,1.8,0.2,2.8,0.2c1.3,0,5.2,0,6.9,0c-0.4,0.7-0.9,2-1,2.9h-6c-4.5,0-7.8-0.7-10-4.2
		c-0.8,1.9-1.8,3.4-3.2,4.6c-0.5-0.5-1.7-1.5-2.3-1.9c2.6-1.9,3.8-5.3,4.2-9.4l2.9,0.3c-0.1,1-0.3,2-0.5,2.9c0.7,2,1.8,3.1,3.2,3.8
		v-8.1h-5.1V54H53v2.7h-5.1v2.8h6.6v2.7h-6.6V65.7z M39,55.2h-2.8v-6h8.9c-0.2-0.7-0.5-1.4-0.8-2l2.9-0.8c0.5,0.8,1,1.9,1.2,2.8h8.3
		v6h-3v-3.3H39V55.2z"/>
	<path class="st0" d="M81.3,63.7h-5.5c1.9,0.9,4.2,2.3,5.4,3.3l-2.2,2c-1.3-1.2-4-2.8-6-3.9l1.6-1.4h-2.8v5.4h-2.9v-5.4h-4l2.8,0.9
		c-1.4,1.6-3.7,3.1-5.8,4c-0.6-0.6-1.7-1.4-2.4-1.9c2-0.7,4.2-1.8,5.3-3.1h-5.2v-2.4h9.4v-1.7h2.9v1.7h9.6V63.7z M78.4,60.8
		c-1.7-0.7-4.1-1.4-6.8-2.1c-2.7,1.1-6.3,1.6-11,1.9c-0.2-0.9-0.6-1.8-1-2.4c2.8-0.1,5.1-0.3,7.1-0.6c-1.3-0.3-2.7-0.5-4.1-0.7
		c0.6-0.6,1.3-1.2,2-2h-4.8v-2.2h6.7c0.6-0.7,1.1-1.4,1.5-2.1h-5.2v1.3h-2.6v-3.7h8.5c-0.2-0.4-0.3-0.7-0.5-1l3-0.6
		c0.3,0.5,0.6,1.1,0.9,1.6h8.6v3.7H78v-1.3h-8.8l1.7,0.5c-0.4,0.5-0.8,1-1.2,1.6h4.6c0.2-0.5,0.4-1,0.6-1.5l2.8,0.6
		c-0.1,0.3-0.2,0.6-0.3,0.9h3.8v2.2h-4.9c-0.5,0.8-1.2,1.5-1.8,2.1c2.6,0.6,4.9,1.3,6.7,1.9L78.4,60.8z M67.6,54.9
		c-0.2,0.2-0.4,0.4-0.6,0.6c1.3,0.2,2.7,0.5,3.9,0.7c0.7-0.4,1.3-0.8,1.8-1.3H67.6z"/>
	<path class="st0" d="M92.1,46.3l2.3,1c-2.4,2.6-4.3,5.9-4.3,10.5s1.9,7.9,4.3,10.5l-2.3,1c-2.6-2.5-4.7-6.4-4.7-11.5
		S89.5,48.9,92.1,46.3z"/>
	<path class="st0" d="M102.3,59.5c-1.1,2.9-2.9,5.7-4.6,7.6c-0.6-0.5-1.9-1.4-2.7-1.8c1.7-1.6,3.4-4.1,4.2-6.6L102.3,59.5z
		 M107.8,56.9V69h-3V56.9h-9V54h21.3v2.9H107.8z M115,51H98v-2.8H115V51z M113.6,58.5c1.6,2.2,3.4,5.1,4,7.2l-3,1.3
		c-0.6-2-2.2-5-3.8-7.3L113.6,58.5z"/>
	<path class="st0" d="M120.7,69.4l-2.3-1c2.4-2.6,4.3-5.9,4.3-10.5s-1.9-7.9-4.3-10.5l2.3-1c2.6,2.5,4.7,6.4,4.7,11.5
		S123.3,66.8,120.7,69.4z"/>
	<path class="st0" d="M137.9,61.6c0-0.3-0.1-0.7-0.2-1.1c-4.3,0.6-5.1,0.9-5.7,1.1c-0.1-0.5-0.6-1.8-0.9-2.6
		c0.6-0.2,1.2-0.7,1.9-1.6c0.3-0.3,0.8-1,1.4-1.9c-1.8,0.2-2.3,0.4-2.6,0.5c-0.1-0.5-0.6-1.8-0.9-2.5c0.5-0.1,0.9-0.6,1.3-1.3
		c0.5-0.7,1.9-3.3,2.7-5.8l2.6,1.1c-0.8,1.9-1.9,4-3.1,5.7l1.6-0.1c0.6-1,1.2-2.1,1.7-3.2l2.4,1.5c-0.9,1.7-2,3.4-3.2,4.9l1.8-0.5
		c0.6,1.6,1.1,3.7,1.3,5L137.9,61.6z M134.3,62.7c-0.2,2.2-0.6,4.6-1.1,6.1c-0.5-0.2-1.5-0.6-2.1-0.7c0.6-1.4,0.9-3.6,1-5.7
		L134.3,62.7z M136.7,62.4c0.3,1.6,0.5,3.7,0.5,5.1l-2.1,0.4c0-1.4-0.2-3.5-0.4-5.1L136.7,62.4z M137.3,58.4
		c-0.1-0.6-0.3-1.2-0.4-1.7c-0.5,0.6-1.1,1.3-1.6,1.9L137.3,58.4z M138.9,61.7c0.4,1.1,0.8,2.4,1,3.3l-1.9,0.6
		c-0.1-0.9-0.6-2.3-0.9-3.4L138.9,61.7z M145.6,59.9c-0.8,3.7-2.6,6.5-5.1,8c-0.3-0.6-1.1-1.5-1.6-2c1.5-0.8,2.8-2.4,3.5-4.2h-2.2
		v-2.3h3.2l0.4-0.1L145.6,59.9z M153.5,60.1c-1.1,0.8-2.2,1.8-3.2,2.5c0.9,1.4,2.1,2.6,3.5,3.3c-0.6,0.5-1.5,1.6-1.9,2.3
		c-1.4-1-2.5-2.4-3.5-4v2.1c0,1.3-0.2,2-1.1,2.4c-0.8,0.4-1.9,0.5-3.5,0.5c-0.1-0.8-0.4-1.9-0.8-2.6c0.9,0,1.9,0,2.2,0
		c0.3,0,0.4-0.1,0.4-0.3v-8.3h-4.6v-8.7h3.4c0.3-0.9,0.6-1.8,0.8-2.5l3.3,0.6c-0.4,0.7-0.7,1.3-1.1,2h5.1v8.7h-4.2v0.8
		c0.2,0.7,0.5,1.3,0.7,1.9c0.8-0.7,1.6-1.6,2.1-2.3L153.5,60.1z M143.8,52.5h6.1v-1.2h-6.1V52.5z M143.8,55.8h6.1v-1.3h-6.1V55.8z"
		/>
	<path class="st0" d="M177.3,65v2.9h-21.8V65h8.6V46.9h3.1v6.9h8.5v2.9h-8.5V65H177.3z"/>
	<path class="st0" d="M200.2,49.8V64h-3v-1.2h-5.3V69h-3v-6.1h-5.2v1.3h-2.9V49.8h8.1v-3.2h3v3.2H200.2z M183.7,52.6V55h5.2v-2.4
		H183.7z M188.9,60.2v-2.5h-5.2v2.5H188.9z M191.9,52.6V55h5.3v-2.4H191.9z M197.2,60.2v-2.5h-5.3v2.5H197.2z"/>
	<path class="st0" d="M206.1,55c-0.5,0.6-1,1.1-1.6,1.6c-0.3-0.8-1-1.8-1.6-2.5c2-1.7,4.2-4.6,5.4-7.7l2.1,1.3
		c-0.2,0.4-0.4,0.8-0.5,1.2c1.5,1.4,3.1,3,3.9,4.1l-1.4,2.3c-0.2-0.3-0.6-0.8-0.9-1.2v2.1h-5.5L206.1,55z M213.8,58.9
		c-0.8,2.3-2.3,4.8-3.6,6.6c0.6,0.6,1.2,1.2,1.6,1.7l-1.9,1.8c-1-1.4-3.2-3.6-4.9-5l1.8-1.5c0.5,0.4,1.1,0.9,1.7,1.4
		c0.8-1,1.6-2.2,2.2-3.4h-6.3v-2.4h7.5l0.4-0.1L213.8,58.9z M211.3,53.9c-0.7-0.9-1.6-1.8-2.5-2.8c-0.6,1-1.2,1.9-1.8,2.8H211.3z
		 M219.1,65.8c-1.2,1.2-3.3,2.6-5.1,3.3c-0.4-0.5-1.2-1.3-1.8-1.8c1.7-0.7,3.7-1.9,4.7-3L219.1,65.8z M217.7,51.6
		c0.1-0.5,0.2-1.1,0.2-1.6h-4.5v-2.4h11.9V50H221c-0.2,0.6-0.3,1.1-0.5,1.6h4.2v12.7h-10.4V51.6H217.7z M222.1,53.7h-5.2v1.5h5.2
		V53.7z M222.1,57.1h-5.2v1.6h5.2V57.1z M222.1,60.6h-5.2v1.5h5.2V60.6z M222,64.4c1.3,0.9,3,2.2,3.9,3.1l-2.2,1.6
		c-0.8-0.9-2.5-2.3-3.7-3.2L222,64.4z"/>
</g>
<rect x="9.2" y="42.3" class="st0" width="220.8" height="0.5"/>
</svg>
