<?xml version="1.0" encoding="utf-8"?>
<!-- Generator: Adobe Illustrator 26.3.1, SVG Export Plug-In . SVG Version: 6.00 Build 0)  -->
<svg version="1.1" id="圖層_1" xmlns="http://www.w3.org/2000/svg" xmlns:xlink="http://www.w3.org/1999/xlink" x="0px" y="0px"
	 viewBox="0 0 373 63" style="enable-background:new 0 0 373 63;" xml:space="preserve">
<style type="text/css">
	.st0{fill:#0B4873;}
</style>
<g>
	<path class="st0" d="M54.4,1.6l-3.9-0.8c-0.6,3-1.5,6-2.7,8.5V7h-7.3c0.6-1.7,1.1-3.6,1.6-5.4L38,0.8C37,5.9,35,10.9,32.5,14
		c1,0.5,2.8,1.7,3.5,2.3c1.1-1.5,2.1-3.4,3-5.5h0.3v20h3.9v-20h3.9c-0.6,1.1-1.3,2.2-2,3.1c0.9,0.5,2.6,1.7,3.3,2.3
		c1.1-1.5,2.1-3.3,3-5.4h3.6v15.4c0,0.4-0.2,0.6-0.7,0.6c-0.5,0-2.4,0-4.1-0.1c0.5,1.2,1.1,2.9,1.2,4c2.6,0,4.5-0.1,5.8-0.7
		c1.3-0.6,1.7-1.7,1.7-3.8V10.8H63V7H52.8C53.4,5.3,54,3.4,54.4,1.6z"/>
	<path class="st0" d="M348.6,13h-0.8c0-1.7,0.1-3.5,0.1-5.3h-2.2c0,1.8,0,3.6,0,5.3h-1.1v2.5h1c-0.2,5.5-0.9,10-3,13.1
		c0.5,0.4,1.5,1.2,1.8,1.6c2.2-3.7,3-8.7,3.3-14.8h0.9c-0.1,8.3-0.2,11.1-0.6,11.7c-0.2,0.3-0.3,0.4-0.6,0.4c-0.3,0-0.8,0-1.4-0.1
		c0.3,0.6,0.6,1.7,0.6,2.4c0.8,0,1.5,0,2-0.1c0.6-0.1,1-0.3,1.4-1c0.6-1,0.7-4.4,0.8-14.6c0-0.3,0-1.1,0-1.1h-1.5H348.6z"/>
	<path class="st0" d="M158.6,23.4v-3h-12.7v-1.9H144c1.4-1.1,2.2-2.5,2.5-3.8c1.2,0.9,2.5,2.1,3.1,3l1.8-1.7
		c0.1,1.2,0.3,1.8,0.7,2.2c0.5,0.5,1.4,0.8,2.2,0.8c0.4,0,1.1,0,1.6,0c0.6,0,1.3-0.1,1.7-0.3c0.5-0.3,0.9-0.7,1.1-1.2
		c0.2-0.5,0.4-1.9,0.4-3.1c-0.8-0.3-1.9-0.8-2.5-1.3c0,1.1-0.1,1.9-0.1,2.3c-0.1,0.4-0.2,0.5-0.3,0.6c-0.1,0.1-0.2,0.1-0.4,0.1
		s-0.4,0-0.5,0c-0.1,0-0.3,0-0.3-0.2c-0.1-0.1-0.1-0.4-0.1-1V9.2h-1.8h-1.9h-4.7h-2.2h-1.3v3.2c0,1.2-0.2,2.3-1.4,3.3l-0.1-1.6
		c-1.3,0.2-2.7,0.4-4,0.6V12h4V9.3h-11.6V12h4.1v3.2c-1.8,0.2-3.5,0.5-4.8,0.6l0.4,3c2.6-0.4,5.9-0.9,9.2-1.4
		c0.8,0.6,1.9,1.7,2.4,2.4c0.2-0.1,0.4-0.2,0.6-0.3v0.8h-12.7v3h9.9c-2.7,1.7-6.7,3-10.5,3.6c0.8,0.8,1.9,2.2,2.4,3.1
		c3.9-0.9,7.9-2.7,10.9-5.1v5.8h3.7V25c2.9,2.4,7,4.1,10.9,5c0.5-1,1.6-2.5,2.4-3.3c-3.9-0.6-8-1.8-10.8-3.4H158.6z M151.4,11.7v3.2
		c-0.8-0.8-2.1-1.8-3.1-2.5l-1.6,1.4c0.1-0.5,0.1-0.9,0.1-1.4v-0.8H151.4z"/>
	<path class="st0" d="M21,6.9c3.4-0.7,7-1.7,9.9-3l-3.1-2.8c-2,1.1-5.1,2.1-8.2,2.8l-2.3-0.6v11.2c0,4.4-0.4,9.9-4.1,13.8
		c0.9,0.5,2.3,1.8,2.8,2.6c4.2-4.4,4.9-11.2,5-16h3.3v15.7h3.7V15h3v-3.6H21V6.9z"/>
	<polygon class="st0" points="300.8,17.7 309.3,17.7 309.3,14.8 300.8,14.8 300.8,7.9 297.7,7.9 297.7,26.1 289,26.1 289,29 311,29 
		311,26.1 300.8,26.1 	"/>
	<path class="st0" d="M104.7,23.6c1.1-3.1,1.9-6.9,2.3-11.5l-2.2-0.5l-0.6,0.1h-0.7h-0.9c1.3-2.9,2.6-6,3.6-8.5l-2.6-0.7l-0.6,0.1
		h-0.5H97V6h4.2c-1.2,2.8-2.8,6.3-4.2,9.1l3.5,0.9c0.1-0.3,0.3-0.6,0.4-0.9h2.2c-0.3,2-0.6,3.8-1.1,5.4c-0.6-1-1.1-2.2-1.6-3.6
		l-3,1.1c0.8,2.6,1.8,4.6,3,6.2c-1,1.8-2.2,3.2-3.8,4.3c0.8,0.5,2.3,1.9,2.9,2.6c1.4-1,2.6-2.4,3.6-4.1c3.4,2.6,7.8,3.2,13.2,3.2
		h9.4c0.2-1.1,0.9-2.9,1.5-3.7c-2.3,0.1-8.9,0.1-10.8,0.1C111.8,26.4,107.8,25.9,104.7,23.6z"/>
	<path class="st0" d="M10.8,20.3V20h5.3v-3.2h-5.3v-2.4h5.6v-3.2h-3.2c0.5-1,1-2.3,1.5-3.6l-1.9-0.4h3.3V4h-5.3V1.1H7V4H1.7v3.1h3.6
		l-2,0.5c0.5,1.1,0.8,2.5,0.9,3.5h-3v3.2H7v2.4H1.4V20h4.9c-1.5,2.4-3.7,4.8-5.8,6.2c0.8,0.6,1.9,1.9,2.5,2.7c1.4-1.1,2.8-2.7,4-4.5
		v6.4h3.7V24c0.9,0.9,1.8,1.8,2.3,2.5l2.2-2.8C14.6,23.2,12,21.1,10.8,20.3z M6.3,7.1h4.8c-0.3,1.1-0.8,2.5-1.2,3.6l2.1,0.4H5.7
		l1.7-0.4C7.3,9.7,6.9,8.3,6.3,7.1z"/>
	<polygon class="st0" points="220.5,12.8 235.3,12.8 235.3,16.1 238.3,16.1 238.3,10.1 229.5,10.1 229.5,7.6 226.4,7.6 226.4,10.1 
		217.7,10.1 217.7,16.1 220.5,16.1 	"/>
	<path class="st0" d="M134.5,6.1h0.5c0.6,1,1.2,2.1,1.4,2.9l3.1-0.9c-0.2-0.6-0.6-1.3-1.1-2h4.5c-0.4,0.4-0.8,0.7-1.2,1.1
		c0.9,0.4,2.6,1.2,3.4,1.8c0.9-0.8,1.7-1.8,2.6-2.9h1.7c0.7,1,1.4,2.1,1.7,2.9l3.3-0.9c-0.3-0.6-0.7-1.3-1.3-2h5.7v-3h-9.3
		c0.3-0.5,0.5-1.1,0.8-1.6l-3.6-0.9c-0.7,1.8-1.8,3.5-3.1,4.9V3.1h-7.2c0.3-0.5,0.6-1,0.8-1.6l-3.6-1c-1,2.4-2.8,4.8-4.7,6.3
		c0.9,0.5,2.4,1.5,3.1,2.1C132.8,8.2,133.7,7.2,134.5,6.1z"/>
	<path class="st0" d="M114.1,7.1H106V10h8.1v1.3h-6v2.9h6v1.4h-6.2v2.8h6.2v1.5h-7.6v3h7.6v2.6h3.7v-2.6h8.4v-3h-8.4v-1.5h6.9v-2.8
		h-6.9v-1.4h6.7V10h2.4V7.1h-2.4V2.9h-6.7V1.1h-3.7v1.8h-5.9v2.9h5.9V7.1z M120.7,11.4h-2.9V10h2.9V11.4z M120.7,5.8v1.3h-2.9V5.8
		H120.7z"/>
	<path class="st0" d="M359.3,19.6v-2.4h-1.8c0.4-1,0.8-2.5,1.2-3.9l-1.8-0.4h2v-2.4h-2.4v-3h-2.7v3h-2.6V13h2.5h2.5
		c-0.2,1.2-0.5,2.8-0.8,3.9l1.6,0.4H353l1.6-0.5c0-1-0.3-2.6-0.8-3.8l-2,0.6c0.4,1.2,0.6,2.7,0.7,3.7h-1.3v2.4h2.7v2.5h-2.5v2.4h2.5
		v5.7h2.7v-5.7h2.4v-2.4h-2.4v-2.5H359.3z"/>
	<path class="st0" d="M82,0.7h-4.1v4.2H65.3v3.7h12.5V12h-9.5v15h3.9V15.7h5.6v15.2h4V15.7H88v7c0,0.4-0.2,0.5-0.7,0.5
		c-0.5,0-2.4,0-4-0.1c0.5,1,1.1,2.7,1.3,3.8c2.5,0,4.4-0.1,5.7-0.6c1.3-0.6,1.7-1.7,1.7-3.6V12h-2.6H88h-6.1V8.6h12.8V4.9H82V0.7z"
		/>
	<path class="st0" d="M262.9,24.8v-2.4h-9.6v-1.7h-2.3c1-0.3,1.9-0.5,2.7-0.9c2.4,0.7,4.5,1.4,6,2l1.7-2c-1.3-0.5-3.1-1.1-5.1-1.6
		c0.8-0.7,1.4-1.6,1.9-2.6h4.2v-2.3h-11.3c0.3-0.4,0.6-0.8,0.8-1.1l-2.2-0.6h9.7v1.3h2.8V9.2h-8.9V7.6h-2.9v1.6h-8.8v3.7h2.7v-1.3
		h4.9c-0.4,0.6-0.8,1.2-1.3,1.8h-6.5v2.3h4.7c-0.7,0.8-1.3,1.6-1.9,2.2l2.7,0.7c0.1-0.1,0.2-0.3,0.3-0.4c0.7,0.2,1.5,0.3,2.2,0.5
		c-1.9,0.4-4.3,0.7-7.6,0.8c0.4,0.6,0.8,1.6,0.9,2.2c3-0.2,5.4-0.5,7.4-0.9v1.5h-9.4v2.4h7.3c-2.1,1.3-5,2.3-7.9,2.8
		c0.6,0.6,1.4,1.7,1.8,2.3c3-0.7,6-2.1,8.2-3.9v4.1h2.9v-4.3c2.3,1.9,5.4,3.3,8.4,4c0.4-0.7,1.2-1.8,1.8-2.4c-2.9-0.5-5.8-1.5-8-2.7
		H262.9z M248.9,16.5c0.2-0.3,0.4-0.5,0.6-0.8h5.7c-0.4,0.7-1,1.3-1.8,1.8C251.8,17.1,250.3,16.7,248.9,16.5z"/>
	<path class="st0" d="M229.5,26.9v-3.6h6.6v-2.7h-6.6v-3h5.1v-2.7h-13.3v2.7h5.1v8.5c-1.4-0.7-2.5-1.8-3.3-3.8c0.2-1,0.4-2,0.6-3.1
		l-3-0.3c-0.4,4.1-1.6,7.5-4.2,9.4c0.7,0.4,1.9,1.5,2.4,2c1.4-1.2,2.4-2.7,3.2-4.6c2.2,3.4,5.5,4.2,9.9,4.2h6c0.1-0.9,0.6-2.3,1-2.9
		c-1.6,0-5.6,0-6.9,0C231.3,27,230.3,27,229.5,26.9z"/>
	<path class="st0" d="M264.3,27.3c0.6,0.2,1.6,0.7,2.1,1c0.7-1.5,1.2-3.9,1.4-6.2l-2.3-0.4C265.3,23.8,265,25.9,264.3,27.3z"/>
	<path class="st0" d="M211.1,15.2c-0.8,0-3.5,0-4.2,0c-1.4,0-1.7-0.1-1.7-1v-1c2.9-0.6,6.1-1.4,8.6-2.4l-2.1-2.1
		c-1.6,0.8-4,1.5-6.4,2.1V7.6h-2.9v6.5c0,2.8,0.9,3.6,4.2,3.6c0.7,0,4,0,4.7,0c2.7,0,3.6-0.9,3.9-4.3c-0.8-0.2-2-0.6-2.6-1
		C212.5,14.8,212.3,15.2,211.1,15.2z"/>
	<path class="st0" d="M284,23.9c1-0.8,2.2-1.7,3.3-2.6l-2.3-1.7c-0.6,0.7-1.4,1.6-2.2,2.4c-0.5-1-0.8-1.9-1.1-2.9V19h4.6v-9h-5
		c0.4-0.6,0.7-1.3,1.1-1.9l-3.3-0.5c-0.2,0.7-0.5,1.6-0.8,2.4h-3.8v9h4.6v2.1l-1.4-0.6l-0.4,0.1h-0.5h-2.7l0.3-0.1
		c-0.3-1.4-1.2-3.5-2.2-5.1l-2,0.8c0.3,0.5,0.5,1,0.7,1.6c-0.7,0-1.4,0.1-2.1,0.1c1.5-1.9,3.2-4.3,4.5-6.4l-2.3-1.1
		c-0.6,1.2-1.4,2.5-2.2,3.9c-0.2-0.3-0.5-0.6-0.7-0.9c0.9-1.3,1.8-3.2,2.7-4.9l-2.5-0.9c-0.4,1.2-1.1,2.8-1.8,4.2
		c-0.2-0.2-0.4-0.3-0.5-0.5l-1.4,1.9c1,1,2.1,2.3,2.8,3.4c-0.4,0.5-0.7,1-1.1,1.4c-0.6,0-1.2,0.1-1.8,0.1l0.3,2.5
		c1-0.1,2.2-0.2,3.4-0.3v9.8h2.5v-10c0.4,0,0.8-0.1,1.2-0.1c0.2,0.5,0.3,1,0.4,1.4l1.7-0.8V23h2.3c-0.8,1.9-2.1,3.4-3.7,4.3
		c0.5,0.4,1.4,1.4,1.8,1.9c2.2-1.4,4-3.9,4.9-7.5v5.7c0,0.2-0.1,0.3-0.4,0.3c-0.3,0-1.2,0-2,0c0.3,0.7,0.6,1.8,0.7,2.5
		c1.5,0,2.5,0,3.3-0.4c0.8-0.4,0.9-1.1,0.9-2.3v-2.8c1,1.8,2.3,3.5,4.2,4.5c0.4-0.7,1.2-1.8,1.7-2.3C286.1,26.2,285,25.1,284,23.9z
		 M277.1,12.2h6.4v1.3h-6.4V12.2z M277.1,15.5h6.4v1.2h-6.4V15.5z"/>
	<path class="st0" d="M272.9,21.6l-2,0.6c0.5,1.3,1,3.1,1.1,4.2l2.1-0.7C273.9,24.6,273.4,23,272.9,21.6z"/>
	<path class="st0" d="M325.4,7.6h-3v3.2h-8.1v14.4h2.9V24h5.2v6.2h3V24h5.4v1.1h3V10.8h-8.4V7.6z M322.4,13.6V16h-5.2v-2.4H322.4z
		 M317.2,21.2v-2.5h5.2v2.5H317.2z M325.4,21.2v-2.5h5.4v2.5H325.4z M330.8,13.6V16h-5.4v-2.4H330.8z"/>
	<path class="st0" d="M344.5,23.5l-0.2-2.3c-0.8,0.1-1.5,0.2-2.3,0.4v-2h2.4v-2.4h-1.5c0.4-1,0.7-2.5,1.2-3.9L342,13h2.2v-2.4H342
		v-3h-2.6v3h-2.3V13h2.4h2.3c-0.1,1.2-0.5,2.8-0.8,3.9l1.5,0.4h-3.9l1.7-0.5c0-1-0.3-2.6-0.7-3.8l-1.9,0.6c0.3,1.2,0.6,2.7,0.6,3.7
		h-1.3v2.4h2.6V22c-1,0.2-2,0.3-2.8,0.4l0.5,2.5c0.6-0.1,1.4-0.2,2.1-0.4c-0.3,1.4-0.9,2.9-2.4,3.9c0.6,0.4,1.4,1.3,1.8,1.9
		c2.2-1.6,3.1-4,3.4-6.2C342.8,23.8,343.6,23.7,344.5,23.5z"/>
	<path class="st0" d="M171.8,19.5l-2.7,0.8c0.7,1.8,1.3,4.1,1.4,5.6l2.8-0.9C173.2,23.5,172.5,21.3,171.8,19.5z"/>
	<path class="st0" d="M202.3,30.2h2.7v-1.1h6.1V30h2.9V19.1h-11.7V30.2z M205.1,26.8v-1.6h6.1v1.6H205.1z M211.2,21.5V23h-6.1v-1.5
		H211.2z"/>
	<path class="st0" d="M186.7,22.6c1.4-1,2.9-2.3,4.4-3.5l-3.1-2.3c-0.7,1-1.8,2.2-2.9,3.2c-0.6-1.3-1.1-2.6-1.5-3.8V16h6.1V4h-6.6
		c0.5-0.8,1-1.7,1.4-2.6l-4.4-0.7c-0.2,1-0.7,2.1-1.1,3.2h-5v12h6.2v2.8l-1.9-0.8l-0.6,0.1h-0.7h-3.6l0.4-0.2
		c-0.4-1.8-1.6-4.6-2.9-6.8l-2.7,1.1c0.3,0.6,0.7,1.3,1,2.1c-0.9,0.1-1.9,0.1-2.8,0.2c2-2.6,4.2-5.8,6-8.5l-3.1-1.4
		c-0.8,1.6-1.8,3.4-2.9,5.2c-0.3-0.4-0.6-0.8-1-1.3c1.1-1.8,2.4-4.3,3.6-6.6l-3.3-1.2c-0.5,1.6-1.5,3.8-2.3,5.6
		c-0.2-0.2-0.5-0.5-0.7-0.7l-1.9,2.6c1.3,1.3,2.8,3.1,3.7,4.5c-0.5,0.7-0.9,1.3-1.4,1.9c-0.8,0-1.6,0.1-2.4,0.1l0.4,3.3
		c1.3-0.1,2.9-0.2,4.5-0.3v13h3.3V17.6c0.5,0,1-0.1,1.6-0.1c0.2,0.7,0.4,1.3,0.5,1.9l2.3-1v3h3.1c-1.1,2.6-2.8,4.5-4.9,5.7
		c0.7,0.5,1.9,1.8,2.4,2.6c3-1.8,5.3-5.2,6.5-10.1v7.7c0,0.3-0.1,0.4-0.5,0.4c-0.4,0-1.5,0-2.7,0c0.4,1,0.8,2.3,0.9,3.3
		c2,0,3.3-0.1,4.4-0.6c1-0.5,1.2-1.4,1.2-3.1v-3.7c1.3,2.4,3.1,4.6,5.6,6.1c0.5-1,1.6-2.4,2.3-3.1C189.5,25.6,187.9,24.2,186.7,22.6
		z M177.5,6.9h8.6v1.7h-8.6V6.9z M177.5,11.4h8.6v1.7h-8.6V11.4z"/>
	<path class="st0" d="M201.2,17.8c-0.8,0.2-1.7,0.4-2.5,0.6v-3.6h2.4v-2.7h-2.4V7.6h-2.8v4.5h-3v2.7h3v4.3c-1.3,0.3-2.4,0.6-3.4,0.8
		l0.7,2.8c0.8-0.2,1.7-0.4,2.7-0.7v5.1c0,0.3-0.1,0.4-0.5,0.5c-0.3,0-1.3,0-2.2,0c0.3,0.7,0.7,1.9,0.8,2.6c1.7,0,2.9-0.1,3.7-0.5
		s1.1-1.2,1.1-2.5v-5.9c0.9-0.3,1.9-0.5,2.8-0.8L201.2,17.8z"/>
	<path class="st0" d="M160.4,27.1c0.7,0.3,2.1,0.9,2.8,1.3c0.9-2,1.6-5.2,1.9-8.3l-3.1-0.5C161.8,22.3,161.3,25.2,160.4,27.1z"/>
</g>
<g>
	<path class="st0" d="M33.5,38.9h-2.7c-0.3,0-0.5,0.2-0.5,0.5v2.4c0,0.3,0.2,0.5,0.5,0.5h2.7c0.3,0,0.5-0.2,0.5-0.5v-2.4
		c0-0.1,0-0.3-0.1-0.4S33.7,38.9,33.5,38.9z"/>
	<path class="st0" d="M46.7,44.5c-0.6-0.4-1.4-0.6-2.4-0.6c-0.8,0-1.5,0.2-2.3,0.5c-0.7,0.3-1.3,0.7-1.8,1.1l-0.6-1.3h-2.9V57h3.6
		v-9c0.3-0.2,0.5-0.4,0.8-0.5c0.3-0.1,0.6-0.3,0.9-0.3c0.3-0.1,0.6-0.1,1-0.1c0.4,0,0.7,0.1,1,0.2c0.3,0.1,0.5,0.4,0.6,0.6
		c0.2,0.3,0.2,0.6,0.2,1v8h3.6v-8.5c0-0.8-0.1-1.6-0.4-2.3C47.7,45.5,47.3,44.9,46.7,44.5z"/>
	<rect x="30.4" y="44.1" class="st0" width="3.6" height="12.9"/>
	<path class="st0" d="M24.4,49.2h-2.1c-0.4,0-0.6,0-0.9-0.1c-0.2-0.1-0.4-0.2-0.5-0.3c-0.1-0.1-0.2-0.4-0.2-0.6v-0.4
		c0-0.4,0.1-0.7,0.4-0.8c0.2-0.2,0.6-0.2,1.1-0.2h5.4v-2.1c-0.3-0.1-0.8-0.2-1.3-0.3c-0.5-0.1-1.1-0.2-1.7-0.2
		C24,44,23.4,44,22.9,44c-1.3,0-2.3,0.1-3.1,0.4c-0.8,0.3-1.3,0.7-1.6,1.3s-0.5,1.2-0.5,2.1v0.7c0,0.9,0.2,1.6,0.5,2.1
		c0.4,0.5,0.8,0.9,1.4,1.1s1.3,0.3,2,0.3h2c0.6,0,0.9,0.1,1.2,0.3c0.2,0.2,0.3,0.4,0.3,0.7v0.4c0,0.3-0.1,0.5-0.2,0.7
		c-0.1,0.1-0.3,0.2-0.5,0.3c-0.2,0-0.5,0.1-0.8,0.1h-5.7v2.1c0.3,0.1,0.6,0.2,1,0.3c0.4,0.1,0.8,0.1,1.3,0.2c0.5,0,0.9,0.1,1.4,0.1
		c0.5,0,0.9,0,1.3,0c1.1,0,2.1-0.1,2.8-0.3c0.8-0.2,1.4-0.6,1.8-1.1c0.4-0.5,0.6-1.2,0.6-2.1v-1.2c0-1.1-0.3-1.9-0.9-2.5
		C26.7,49.5,25.7,49.2,24.4,49.2z"/>
	<polygon class="st0" points="11.8,46.6 5.1,46.6 5.1,39.2 1.5,39.2 1.5,57 5.1,57 5.1,49.8 11.8,49.8 11.8,57 15.4,57 15.4,39.2 
		11.8,39.2 	"/>
	<path class="st0" d="M55.4,54.2c-0.4-0.2-0.8-0.6-1-1.1c-0.2-0.6-0.3-1.4-0.3-2.4c0-1.1,0.1-1.9,0.3-2.5c0.2-0.6,0.5-1,1-1.2
		c0.4-0.2,1-0.3,1.8-0.3h3.4v-2c-0.8-0.2-1.5-0.4-2.3-0.5c-0.7-0.1-1.4-0.1-2.2-0.1c-0.9,0-1.6,0.1-2.3,0.3s-1.3,0.6-1.8,1.1
		c-0.5,0.5-0.8,1.2-1.1,2c-0.2,0.9-0.4,2-0.4,3.3c0,1.3,0.1,2.3,0.4,3.2c0.3,0.8,0.6,1.5,1.1,2c0.5,0.5,1,0.8,1.7,1
		c0.7,0.2,1.4,0.3,2.2,0.3c0.6,0,1.1,0,1.7-0.1c0.6,0,1.2-0.1,1.7-0.2c0.5-0.1,1-0.2,1.4-0.4v-2h-3.5C56.4,54.5,55.8,54.4,55.4,54.2
		z"/>
	<path class="st0" d="M114.6,38.9h-2.7c-0.3,0-0.5,0.2-0.5,0.5v2.4c0,0.3,0.2,0.5,0.5,0.5h2.7c0.3,0,0.5-0.2,0.5-0.5v-2.4
		c0-0.1,0-0.3-0.1-0.4C114.9,38.9,114.8,38.9,114.6,38.9z"/>
	<rect x="111.5" y="44.1" class="st0" width="3.6" height="12.9"/>
	<path class="st0" d="M122.1,40.5h-2.8l-0.5,3.6l-2.1,0.6V47h2l-0.1,5.4c0,1.1,0.1,2,0.4,2.7c0.3,0.7,0.7,1.2,1.3,1.4
		c0.6,0.3,1.4,0.4,2.4,0.4h2.3v-2.6l-1.6-0.1c-0.2,0-0.3-0.1-0.5-0.1c-0.2-0.1-0.3-0.2-0.4-0.3c-0.1-0.1-0.2-0.3-0.3-0.6
		c-0.1-0.2-0.1-0.5-0.1-0.9V47h3v-2.9h-3V40.5z"/>
	<path class="st0" d="M72.7,44.5c-0.6-0.4-1.4-0.6-2.3-0.6c-0.8,0-1.6,0.2-2.3,0.5c-0.7,0.3-1.3,0.7-1.8,1.1v-6.7h-3.6V57h3.6v-9
		c0.3-0.2,0.5-0.3,0.8-0.5c0.3-0.1,0.6-0.3,0.9-0.3c0.3-0.1,0.6-0.1,1-0.1c0.4,0,0.7,0.1,1,0.2c0.3,0.1,0.5,0.3,0.6,0.6
		c0.2,0.3,0.2,0.6,0.2,1V57h3.6v-8.5c0-0.9-0.1-1.7-0.4-2.4C73.7,45.4,73.2,44.9,72.7,44.5z"/>
	<path class="st0" d="M135.5,44.1l-2.3,10c-0.1,0-0.2,0-0.3,0c-0.1,0-0.2-0.1-0.4-0.1c-0.1-0.1-0.3-0.2-0.4-0.4
		c-0.1-0.2-0.2-0.4-0.3-0.7l-2-8.7H126l2.4,9.4c0.2,0.8,0.5,1.4,0.8,1.9c0.4,0.5,0.8,0.9,1.4,1.2c0.5,0.3,1.2,0.4,1.9,0.4l-1.4,5.7
		h3l1.2-2.4l3.8-16.2H135.5z"/>
	<path class="st0" d="M105.8,39.2c-0.7-0.1-1.4-0.1-2.2-0.1c-1,0-1.9,0.1-2.7,0.4s-1.5,0.7-2,1.4c-0.6,0.6-1,1.6-1.3,2.7
		c-0.3,1.2-0.4,2.7-0.4,4.5c0,1.9,0.1,3.5,0.4,4.7c0.3,1.2,0.7,2.1,1.2,2.7c0.6,0.6,1.2,1.1,2,1.3c0.8,0.2,1.7,0.4,2.8,0.4
		c0.8,0,1.6,0,2.3-0.1c0.7,0,1.3-0.1,1.8-0.2c0.6-0.1,1.1-0.2,1.5-0.4v-2.7c-0.5,0.1-1.1,0.1-1.8,0.2c-0.8,0-1.7,0.1-3,0.1
		c-0.7,0-1.3-0.1-1.8-0.2c-0.5-0.2-0.8-0.5-1.1-0.9c-0.3-0.4-0.5-1-0.6-1.8c-0.1-0.8-0.2-1.7-0.2-2.9c0-1.2,0.1-2.2,0.2-3
		c0.1-0.8,0.4-1.4,0.6-1.8c0.3-0.4,0.7-0.7,1.1-0.8c0.5-0.2,1.1-0.2,1.7-0.2c0.7,0,1.3,0,2,0.1c0.6,0,1.2,0.1,1.7,0.1
		c0.5,0.1,0.9,0.1,1.2,0.2v-2.8c-0.4-0.1-0.9-0.3-1.4-0.4C107.2,39.4,106.5,39.3,105.8,39.2z"/>
	<path class="st0" d="M85,53.1c-0.4,0.3-0.8,0.5-1.3,0.7c-0.5,0.2-0.9,0.2-1.4,0.2c-0.6,0-1-0.1-1.4-0.4c-0.3-0.3-0.5-0.7-0.5-1.5
		v-8.1h-3.6v9.1c0,1.2,0.3,2.2,1,2.9c0.7,0.7,1.6,1,2.7,1c0.8,0,1.6-0.1,2.4-0.4c0.8-0.3,1.4-0.6,2-1l0.6,1.3h3V44.1H85V53.1z"/>
</g>
<rect x="1.3" y="34.4" class="st0" width="358" height="0.5"/>
</svg>
