<svg width="137" height="51" viewBox="0 0 137 51" fill="none" xmlns="http://www.w3.org/2000/svg">
<rect x="17.7969" y="0.5" width="118" height="27" rx="4.5" fill="white" stroke="#DC7700"/>
<path d="M30.7569 11.712V13.062H38.1549V11.712H30.7569ZM23.2149 20.244V21.594H39.3789V20.244H23.2149ZM29.9829 6.15V20.964H31.4049V6.15H29.9829ZM48.0009 12.144H55.3809V13.278H48.0009V12.144ZM48.0009 10.2H55.3809V11.316H48.0009V10.2ZM46.7589 9.354V14.142H56.6769V9.354H46.7589ZM45.8769 15.312L46.0029 16.41C48.6489 16.356 52.4829 16.23 56.1369 16.122L56.1729 15.15C52.4109 15.24 48.4329 15.312 45.8769 15.312ZM53.9049 14.322C54.9309 15.078 56.1369 16.176 56.7129 16.896L57.6849 16.284C57.0909 15.564 55.8489 14.502 54.8229 13.782L53.9049 14.322ZM50.9889 6.024V15.816L52.3029 15.708V6.024H50.9889ZM45.5169 17.364V18.462H57.5769V17.364H45.5169ZM53.7249 15.816V21C53.7249 21.234 53.6529 21.306 53.3829 21.306C53.0769 21.342 52.1589 21.342 51.0609 21.306C51.2229 21.648 51.4029 22.116 51.4749 22.458C52.8609 22.458 53.7609 22.476 54.3189 22.278C54.8769 22.098 55.0389 21.756 55.0389 21.018V15.816H53.7249ZM47.4429 19.092C48.2889 19.812 49.2609 20.856 49.6929 21.54L50.7549 20.802C50.2689 20.136 49.2789 19.146 48.4329 18.462L47.4429 19.092ZM46.0209 7.284V8.328H57.3969V7.284H46.0209ZM45.0489 5.952C44.0409 8.688 42.3489 11.388 40.5669 13.134C40.8189 13.44 41.1969 14.16 41.3409 14.466C43.2849 12.45 45.1389 9.408 46.3269 6.348L45.0489 5.952ZM43.1769 10.596V22.422H44.4729V9.336L44.4369 9.318L43.1769 10.596ZM59.4489 8.886V10.092H65.8569V8.886H59.4489ZM59.0709 13.044V14.286H66.2169V13.044H59.0709ZM62.0409 6.078V12.306C62.0409 15.096 61.9149 19.056 58.9629 21.252C59.2689 21.504 59.7009 21.954 59.8809 22.242C63.0489 19.686 63.3369 15.474 63.3369 12.288V6.078H62.0409ZM63.0309 15.204L62.2029 15.852C62.9229 16.626 64.7229 18.822 65.3529 19.758L66.2709 18.75C65.7849 18.174 63.6429 15.762 63.0309 15.204ZM68.1429 10.704H73.2909V12.486H68.1429V10.704ZM68.1429 13.602H73.2909V15.402H68.1429V13.602ZM68.1429 7.806H73.2909V9.57H68.1429V7.806ZM66.8649 6.6V16.626H74.5869V6.6H66.8649ZM71.1849 16.086V20.46C71.1849 21.738 71.4729 22.134 72.6969 22.134C72.9489 22.134 73.9209 22.134 74.1729 22.134C75.2529 22.134 75.5769 21.522 75.6849 19.056C75.3429 18.966 74.8029 18.768 74.5509 18.534C74.4969 20.658 74.4249 20.928 74.0469 20.928C73.8309 20.928 73.0569 20.928 72.8949 20.928C72.4989 20.928 72.4629 20.874 72.4629 20.442V16.086H71.1849ZM68.3409 16.338C68.0889 18.714 67.3869 20.478 64.5069 21.414C64.7769 21.648 65.1369 22.134 65.2809 22.422C68.4489 21.288 69.3129 19.218 69.6369 16.338H68.3409ZM86.2509 7.824V9.012H91.3269V7.824H86.2509ZM84.6129 15.852V22.458H85.8729V17.022H90.8949V22.404H92.1909V15.852H84.6129ZM85.1529 20.478V21.666H91.5789V20.478H85.1529ZM86.7729 5.862C85.9269 8.04 84.4689 10.092 82.8129 11.388C83.1189 11.586 83.6589 12.054 83.8749 12.288C85.5129 10.866 87.0969 8.616 88.0689 6.222L86.7729 5.862ZM90.9489 7.824V8.058C89.6349 11.874 86.0349 14.646 82.4169 15.78C82.6869 16.032 83.0289 16.536 83.1909 16.878C87.0249 15.492 90.7329 12.63 92.2809 8.166L91.4349 7.77L91.2009 7.824H90.9489ZM86.1429 8.76L85.1529 9.39C86.3769 12.072 89.0229 15.06 93.0369 16.464C93.2169 16.14 93.5949 15.6 93.8649 15.348C89.9049 14.142 87.2589 11.316 86.1429 8.76ZM77.2149 9.75V11.028H83.5509V9.75H77.2149ZM79.9329 5.88V22.422H81.2109V5.88H79.9329ZM79.8789 10.542C79.3389 13.134 78.0609 16.248 76.7829 17.868C77.0349 18.174 77.3589 18.696 77.5029 19.056C78.8529 17.238 80.1309 13.728 80.7249 10.83L79.8789 10.542ZM81.1209 11.748L80.4549 12.342C80.9589 12.99 82.2549 14.844 82.6869 15.636L83.4969 14.592C83.1369 14.106 81.5529 12.18 81.1209 11.748ZM102.217 14.538V22.44H103.495V15.69H109.363V22.35H110.713V14.538H102.217ZM102.883 17.49V18.588H109.849V17.49H102.883ZM102.847 20.478V21.594H109.885V20.478H102.847ZM94.8009 15.438L95.1969 16.77C96.8889 16.266 99.1569 15.564 101.263 14.934L101.101 13.656C98.7969 14.34 96.3849 15.024 94.8009 15.438ZM95.0709 9.516V10.83H101.047V9.516H95.0709ZM97.6449 5.898V20.82C97.6449 21.09 97.5549 21.162 97.3029 21.162C97.0869 21.18 96.3129 21.18 95.5029 21.162C95.6829 21.522 95.8809 22.08 95.9349 22.404C97.1409 22.422 97.8609 22.386 98.3469 22.17C98.8149 21.954 98.9949 21.594 98.9949 20.82V5.898H97.6449ZM102.199 5.952V10.848C102.199 12.432 102.739 12.99 104.539 12.99C105.007 12.99 108.625 12.99 109.345 12.99C110.191 12.99 111.073 12.972 111.433 12.882C111.379 12.576 111.325 12.072 111.271 11.712C110.839 11.802 109.867 11.82 109.273 11.82C108.571 11.82 105.205 11.82 104.521 11.82C103.729 11.82 103.531 11.586 103.531 10.884V5.952H102.199ZM102.901 8.112V9.3H110.821V8.112H102.901ZM116.383 14.772C115.645 16.806 114.349 18.804 112.927 20.082C113.287 20.262 113.899 20.676 114.187 20.91C115.573 19.524 116.941 17.364 117.805 15.15L116.383 14.772ZM124.933 15.258C126.247 16.986 127.615 19.326 128.101 20.82L129.469 20.208C128.929 18.678 127.507 16.41 126.175 14.718L124.933 15.258ZM114.997 7.176V8.508H127.669V7.176H114.997ZM113.377 11.478V12.828H129.235V11.478H113.377ZM120.505 11.982V22.368H121.927V11.982H120.505Z" fill="#DC7700"/>
<path d="M22.2969 23.7H130.297V24.6H22.2969V23.7Z" fill="#DC7700"/>
<path d="M24.2969 24C24.2969 27.3137 21.6106 30 18.2969 30C14.9832 30 12.2969 27.3137 12.2969 24C12.2969 20.6863 14.9832 18 18.2969 18C21.6106 18 24.2969 20.6863 24.2969 24Z" fill="white"/>
<mask id="path-4-inside-1_582_25782" fill="white">
<path d="M20.0426 21.2543C18.6649 20.4541 16.8912 20.8935 16.1169 22.2267L10.555 31.8029L10.329 30.9262L10.2225 30.6273C9.79979 29.1324 8.22255 28.2164 6.71464 28.5899C5.20674 28.9634 4.32022 30.4898 4.74296 31.9846L4.72825 32.0099L7.77603 42.555L7.81368 42.6107L7.81043 42.6766C8.463 44.1525 9.58462 45.5366 11.2044 46.4774L12.6442 47.3136C16.4433 49.5202 21.2226 48.3363 23.358 44.6597L27.0365 38.3262C27.8108 36.993 27.3136 35.2347 25.9359 34.4346C25.5793 34.2274 25.1936 34.1304 24.8087 34.0848C25.1463 32.8706 24.6165 31.4999 23.4483 30.8214C22.8069 30.4489 22.0763 30.3506 21.405 30.4817C21.1862 29.8337 20.7388 29.2477 20.0975 28.8752C19.8029 28.7042 19.4899 28.6028 19.1715 28.5407L21.1431 25.146C21.9175 23.8128 21.4202 22.0544 20.0426 21.2543ZM19.1009 22.8756C19.5655 23.1455 19.7289 23.7232 19.4677 24.1729L14.2884 33.0904L15.9638 34.0635L17.8472 30.8207C18.1084 30.3711 18.6911 30.2267 19.1558 30.4966C19.6204 30.7665 19.7838 31.3441 19.5226 31.7938L17.6392 35.0366L19.3146 36.0096L21.198 32.7669C21.4592 32.3172 22.0419 32.1729 22.5066 32.4428C22.9712 32.7127 23.1346 33.2903 22.8734 33.74L20.99 36.9827L22.744 38.0014L23.6857 36.3801C23.9469 35.9304 24.5296 35.786 24.9942 36.0559C25.4589 36.3258 25.6223 36.9035 25.3611 37.3532L21.6826 43.6866C20.0512 46.4955 16.4884 47.378 13.5859 45.6922L12.1461 44.856C10.919 44.1433 10.1052 43.1032 9.59651 41.9522L6.58312 31.5288C6.41975 30.9511 6.64782 30.5584 7.23054 30.4141C7.81325 30.2698 8.21902 30.5054 8.38238 31.0831L9.96445 36.6774L17.7923 23.1998C18.0535 22.7501 18.6362 22.6058 19.1009 22.8756Z"/>
</mask>
<path d="M20.0426 21.2543C18.6649 20.4541 16.8912 20.8935 16.1169 22.2267L10.555 31.8029L10.329 30.9262L10.2225 30.6273C9.79979 29.1324 8.22255 28.2164 6.71464 28.5899C5.20674 28.9634 4.32022 30.4898 4.74296 31.9846L4.72825 32.0099L7.77603 42.555L7.81368 42.6107L7.81043 42.6766C8.463 44.1525 9.58462 45.5366 11.2044 46.4774L12.6442 47.3136C16.4433 49.5202 21.2226 48.3363 23.358 44.6597L27.0365 38.3262C27.8108 36.993 27.3136 35.2347 25.9359 34.4346C25.5793 34.2274 25.1936 34.1304 24.8087 34.0848C25.1463 32.8706 24.6165 31.4999 23.4483 30.8214C22.8069 30.4489 22.0763 30.3506 21.405 30.4817C21.1862 29.8337 20.7388 29.2477 20.0975 28.8752C19.8029 28.7042 19.4899 28.6028 19.1715 28.5407L21.1431 25.146C21.9175 23.8128 21.4202 22.0544 20.0426 21.2543ZM19.1009 22.8756C19.5655 23.1455 19.7289 23.7232 19.4677 24.1729L14.2884 33.0904L15.9638 34.0635L17.8472 30.8207C18.1084 30.3711 18.6911 30.2267 19.1558 30.4966C19.6204 30.7665 19.7838 31.3441 19.5226 31.7938L17.6392 35.0366L19.3146 36.0096L21.198 32.7669C21.4592 32.3172 22.0419 32.1729 22.5066 32.4428C22.9712 32.7127 23.1346 33.2903 22.8734 33.74L20.99 36.9827L22.744 38.0014L23.6857 36.3801C23.9469 35.9304 24.5296 35.786 24.9942 36.0559C25.4589 36.3258 25.6223 36.9035 25.3611 37.3532L21.6826 43.6866C20.0512 46.4955 16.4884 47.378 13.5859 45.6922L12.1461 44.856C10.919 44.1433 10.1052 43.1032 9.59651 41.9522L6.58312 31.5288C6.41975 30.9511 6.64782 30.5584 7.23054 30.4141C7.81325 30.2698 8.21902 30.5054 8.38238 31.0831L9.96445 36.6774L17.7923 23.1998C18.0535 22.7501 18.6362 22.6058 19.1009 22.8756Z" fill="#0B4873"/>
<path d="M16.1169 22.2267L16.9816 22.7289L16.1169 22.2267ZM10.555 31.8029L9.58667 32.0526L10.1953 34.4132L11.4197 32.3051L10.555 31.8029ZM10.329 30.9262L11.2973 30.6766L11.2861 30.6331L11.2711 30.5909L10.329 30.9262ZM10.2225 30.6273L9.26028 30.8994L9.26931 30.9314L9.28045 30.9626L10.2225 30.6273ZM6.71464 28.5899L6.95508 29.5605L6.71464 28.5899ZM4.74296 31.9846L5.60769 32.4868L5.82056 32.1203L5.70523 31.7125L4.74296 31.9846ZM4.72825 32.0099L3.86352 31.5077L3.64894 31.8772L3.76757 32.2876L4.72825 32.0099ZM7.77603 42.555L6.81535 42.8327L6.85911 42.984L6.9473 43.1146L7.77603 42.555ZM7.81368 42.6107L8.81246 42.66L8.82888 42.3272L8.64241 42.0511L7.81368 42.6107ZM7.81043 42.6766L6.81164 42.6273L6.79996 42.8641L6.89584 43.081L7.81043 42.6766ZM11.2044 46.4774L10.7022 47.3421L11.2044 46.4774ZM12.6442 47.3136L13.1464 46.4489L12.6442 47.3136ZM23.358 44.6597L22.4933 44.1575L23.358 44.6597ZM27.0365 38.3262L27.9012 38.8285L27.0365 38.3262ZM24.8087 34.0848L23.8453 33.8169L23.5329 34.9405L24.6909 35.0778L24.8087 34.0848ZM21.405 30.4817L20.4576 30.8016L20.7376 31.6308L21.5966 31.4631L21.405 30.4817ZM19.1715 28.5407L18.3067 28.0385L17.6012 29.2532L18.98 29.5222L19.1715 28.5407ZM21.1431 25.146L22.0079 25.6482L21.1431 25.146ZM19.4677 24.1729L18.603 23.6706L19.4677 24.1729ZM14.2884 33.0904L13.4237 32.5881L12.9214 33.4529L13.7862 33.9551L14.2884 33.0904ZM15.9638 34.0635L15.4616 34.9282L16.3263 35.4304L16.8285 34.5657L15.9638 34.0635ZM17.8472 30.8207L18.7119 31.323L17.8472 30.8207ZM19.5226 31.7938L18.6579 31.2916L19.5226 31.7938ZM17.6392 35.0366L16.7745 34.5343L16.2722 35.399L17.137 35.9013L17.6392 35.0366ZM19.3146 36.0096L18.8124 36.8744L19.6771 37.3766L20.1794 36.5119L19.3146 36.0096ZM21.198 32.7669L22.0628 33.2692L21.198 32.7669ZM22.8734 33.74L22.0087 33.2378L22.8734 33.74ZM20.99 36.9827L20.1253 36.4805L19.6231 37.3452L20.4878 37.8475L20.99 36.9827ZM22.744 38.0014L22.2417 38.8662L23.1065 39.3684L23.6087 38.5037L22.744 38.0014ZM23.6857 36.3801L22.821 35.8778L23.6857 36.3801ZM25.3611 37.3532L26.2258 37.8554L25.3611 37.3532ZM21.6826 43.6866L20.8179 43.1844L21.6826 43.6866ZM13.5859 45.6922L13.0837 46.557L13.5859 45.6922ZM12.1461 44.856L12.6483 43.9913L12.1461 44.856ZM9.59651 41.9522L8.63585 42.2299L8.65459 42.2948L8.68187 42.3565L9.59651 41.9522ZM6.58312 31.5288L5.62084 31.8009L5.62246 31.8065L6.58312 31.5288ZM7.23054 30.4141L6.99009 29.4434L7.23054 30.4141ZM8.38238 31.0831L7.42012 31.3552L8.38238 31.0831ZM9.96445 36.6774L9.00219 36.9495L9.64423 39.2198L10.8292 37.1796L9.96445 36.6774ZM17.7923 23.1998L16.9276 22.6975L17.7923 23.1998ZM20.5448 20.3895C18.7165 19.3277 16.3193 19.8872 15.2522 21.7245L16.9816 22.7289C17.4632 21.8998 18.6133 21.5806 19.5403 22.119L20.5448 20.3895ZM15.2522 21.7245L9.69027 31.3006L11.4197 32.3051L16.9816 22.7289L15.2522 21.7245ZM11.5233 31.5532L11.2973 30.6766L9.36064 31.1759L9.58667 32.0526L11.5233 31.5532ZM11.2711 30.5909L11.1646 30.2919L9.28045 30.9626L9.38688 31.2616L11.2711 30.5909ZM11.1848 30.3551C10.6152 28.3411 8.5058 27.116 6.4742 27.6192L6.95508 29.5605C7.93929 29.3167 8.98435 29.9237 9.26028 30.8994L11.1848 30.3551ZM6.4742 27.6192C4.41775 28.1286 3.20417 30.2181 3.7807 32.2567L5.70523 31.7125C5.43627 30.7614 5.99573 29.7982 6.95508 29.5605L6.4742 27.6192ZM3.87823 31.4824L3.86352 31.5077L5.59298 32.5122L5.60769 32.4868L3.87823 31.4824ZM3.76757 32.2876L6.81535 42.8327L8.73671 42.2773L5.68893 31.7323L3.76757 32.2876ZM6.9473 43.1146L6.98494 43.1704L8.64241 42.0511L8.60477 41.9954L6.9473 43.1146ZM6.81489 42.5615L6.81164 42.6273L8.80921 42.7259L8.81246 42.66L6.81489 42.5615ZM6.89584 43.081C7.62573 44.7317 8.88323 46.2856 10.7022 47.3421L11.7066 45.6126C10.286 44.7875 9.30027 43.5732 8.72501 42.2722L6.89584 43.081ZM10.7022 47.3421L12.142 48.1783L13.1464 46.4489L11.7066 45.6126L10.7022 47.3421ZM12.142 48.1783C16.3917 50.6466 21.7946 49.3426 24.2227 45.1619L22.4933 44.1575C20.6507 47.33 16.4949 48.3937 13.1464 46.4489L12.142 48.1783ZM24.2227 45.1619L27.9012 38.8285L26.1718 37.824L22.4933 44.1575L24.2227 45.1619ZM27.9012 38.8285C28.9683 36.9912 28.2664 34.6317 26.4382 33.5698L25.4337 35.2993C26.3607 35.8377 26.6533 36.9949 26.1718 37.824L27.9012 38.8285ZM26.4382 33.5698C25.9257 33.2722 25.3956 33.1474 24.9265 33.0918L24.6909 35.0778C24.9916 35.1135 25.2328 35.1826 25.4337 35.2993L26.4382 33.5698ZM25.7722 34.3527C26.232 32.699 25.5114 30.8633 23.9505 29.9567L22.946 31.6861C23.7216 32.1366 24.0607 33.0422 23.8453 33.8169L25.7722 34.3527ZM23.9505 29.9567C23.0874 29.4554 22.1082 29.3255 21.2134 29.5002L21.5966 31.4631C22.0444 31.3757 22.5264 31.4424 22.946 31.6861L23.9505 29.9567ZM22.3525 30.1617C22.0608 29.298 21.4628 28.5118 20.5997 28.0105L19.5952 29.74C20.0148 29.9837 20.3116 30.3693 20.4576 30.8016L22.3525 30.1617ZM20.5997 28.0105C20.1857 27.77 19.7609 27.6368 19.3629 27.5592L18.98 29.5222C19.2188 29.5688 19.4202 29.6383 19.5952 29.74L20.5997 28.0105ZM20.0362 29.0429L22.0079 25.6482L20.2784 24.6437L18.3067 28.0385L20.0362 29.0429ZM22.0079 25.6482C23.075 23.8109 22.3731 21.4514 20.5448 20.3895L19.5403 22.119C20.4673 22.6574 20.76 23.8146 20.2784 24.6437L22.0079 25.6482ZM18.5986 23.7404C18.6036 23.7432 18.5976 23.741 18.5942 23.729C18.5926 23.7232 18.5913 23.7143 18.5926 23.7028C18.5941 23.6905 18.5981 23.679 18.603 23.6706L20.3325 24.6751C20.8864 23.7213 20.5184 22.5425 19.6031 22.0109L18.5986 23.7404ZM18.603 23.6706L13.4237 32.5881L15.1531 33.5926L20.3325 24.6751L18.603 23.6706ZM13.7862 33.9551L15.4616 34.9282L16.466 33.1987L14.7906 32.2257L13.7862 33.9551ZM16.8285 34.5657L18.7119 31.323L16.9825 30.3185L15.0991 33.5612L16.8285 34.5657ZM18.7119 31.323C18.7071 31.3313 18.6991 31.3406 18.6891 31.3479C18.6798 31.3548 18.6714 31.3581 18.6656 31.3595C18.6534 31.3625 18.6486 31.3585 18.6535 31.3613L19.658 29.6319C18.7427 29.1003 17.5364 29.3647 16.9825 30.3185L18.7119 31.323ZM18.6535 31.3613C18.6585 31.3642 18.6525 31.362 18.6491 31.3499C18.6475 31.3442 18.6462 31.3353 18.6475 31.3238C18.649 31.3115 18.653 31.2999 18.6579 31.2916L20.3873 32.2961C20.9413 31.3423 20.5733 30.1635 19.658 29.6319L18.6535 31.3613ZM18.6579 31.2916L16.7745 34.5343L18.5039 35.5388L20.3873 32.2961L18.6579 31.2916ZM17.137 35.9013L18.8124 36.8744L19.8169 35.1449L18.1415 34.1718L17.137 35.9013ZM20.1794 36.5119L22.0628 33.2692L20.3333 32.2647L18.4499 35.5074L20.1794 36.5119ZM22.0628 33.2692C22.0579 33.2775 22.0499 33.2868 22.0399 33.2941C22.0306 33.301 22.0222 33.3042 22.0164 33.3057C22.0042 33.3087 21.9994 33.3046 22.0043 33.3075L23.0088 31.578C22.0935 31.0464 20.8872 31.3109 20.3333 32.2647L22.0628 33.2692ZM22.0043 33.3075C22.0093 33.3104 22.0034 33.3082 21.9999 33.2961C21.9983 33.2903 21.997 33.2815 21.9983 33.27C21.9998 33.2576 22.0039 33.2461 22.0087 33.2378L23.7382 34.2422C24.2921 33.2885 23.9241 32.1097 23.0088 31.578L22.0043 33.3075ZM22.0087 33.2378L20.1253 36.4805L21.8548 37.485L23.7382 34.2422L22.0087 33.2378ZM20.4878 37.8475L22.2417 38.8662L23.2462 37.1367L21.4923 36.118L20.4878 37.8475ZM23.6087 38.5037L24.5504 36.8823L22.821 35.8778L21.8793 37.4992L23.6087 38.5037ZM24.5504 36.8823C24.5456 36.8907 24.5376 36.8999 24.5276 36.9073C24.5182 36.9141 24.5099 36.9174 24.5041 36.9188C24.4919 36.9218 24.4871 36.9178 24.492 36.9207L25.4965 35.1912C24.5812 34.6596 23.3749 34.9241 22.821 35.8778L24.5504 36.8823ZM24.492 36.9207C24.4969 36.9235 24.491 36.9213 24.4876 36.9092C24.486 36.9035 24.4847 36.8946 24.486 36.8831C24.4874 36.8708 24.4915 36.8593 24.4964 36.8509L26.2258 37.8554C26.7798 36.9016 26.4118 35.7228 25.4965 35.1912L24.492 36.9207ZM24.4964 36.8509L20.8179 43.1844L22.5473 44.1889L26.2258 37.8554L24.4964 36.8509ZM20.8179 43.1844C19.4792 45.4892 16.54 46.2516 14.0881 44.8275L13.0837 46.557C16.4368 48.5045 20.6231 47.5018 22.5473 44.1889L20.8179 43.1844ZM14.0881 44.8275L12.6483 43.9913L11.6439 45.7207L13.0837 46.557L14.0881 44.8275ZM12.6483 43.9913C11.6322 43.4011 10.9488 42.538 10.5111 41.5479L8.68187 42.3565C9.2617 43.6683 10.2058 44.8855 11.6439 45.7207L12.6483 43.9913ZM10.5572 41.6745L7.54378 31.2511L5.62246 31.8065L8.63585 42.2299L10.5572 41.6745ZM7.54538 31.2567C7.52857 31.1972 7.53238 31.1789 7.53147 31.1935C7.53029 31.2124 7.52265 31.258 7.49178 31.3112C7.4609 31.3643 7.42506 31.3936 7.40926 31.404C7.39703 31.412 7.41101 31.3996 7.47098 31.3848L6.99009 29.4434C6.53074 29.5572 6.05015 29.8111 5.76232 30.3067C5.47449 30.8023 5.49207 31.3455 5.62086 31.8009L7.54538 31.2567ZM7.47098 31.3848C7.5303 31.3701 7.55261 31.3733 7.5454 31.3726C7.54131 31.3723 7.53038 31.3709 7.51452 31.366C7.49843 31.3611 7.48017 31.3534 7.46148 31.3426C7.44279 31.3317 7.42711 31.3196 7.41485 31.3081C7.40276 31.2967 7.39613 31.2879 7.39379 31.2846C7.38966 31.2786 7.40349 31.2964 7.42012 31.3552L9.34464 30.811C9.21469 30.3514 8.94731 29.8927 8.46595 29.6131C7.9846 29.3335 7.45363 29.3286 6.99009 29.4434L7.47098 31.3848ZM7.42012 31.3552L9.00219 36.9495L10.9267 36.4053L9.34464 30.811L7.42012 31.3552ZM10.8292 37.1796L18.657 23.702L16.9276 22.6975L9.09972 36.1752L10.8292 37.1796ZM18.657 23.702C18.6522 23.7104 18.6442 23.7196 18.6342 23.727C18.6249 23.7338 18.6165 23.7371 18.6107 23.7385C18.5985 23.7416 18.5937 23.7375 18.5986 23.7404L19.6031 22.0109C18.6878 21.4793 17.4815 21.7438 16.9276 22.6975L18.657 23.702Z" fill="#DC7700" mask="url(#path-4-inside-1_582_25782)"/>
</svg>
